<svg width="114" height="167" fill="none" xmlns="http://www.w3.org/2000/svg"><path fill="#00738C" d="M49.711 16.085h26.106v150.764H49.711z"/><path fill="#00738C" d="m20.454 16.176.05-12.335 84.615.384-.05 12.334z"/><path d="m107.287 18.677-13.761-2.174 11.627-12.49 2.134 14.664ZM19.26 18.665l1.25-14.78 12.352 11.67-13.602 3.11Z" fill="#00738C"/><path fill="#FF902E" d="M36.641 23.904h25.451v125.724H36.641z"/><path fill="#FF902E" d="m8.118 23.98.048-10.286 82.494.32-.048 10.286z"/><path d="m92.774 26.066-13.416-1.813 11.335-10.416 2.081 12.229ZM6.953 26.056 8.172 13.73l12.043 9.732-13.262 2.594Z" fill="#FF902E"/></svg>